<svg width="366" height="105" viewBox="0 0 366 105" fill="none" xmlns="http://www.w3.org/2000/svg">
<rect width="365.177" height="105" rx="16" fill="#181728"/>
<rect x="1" y="1" width="363.177" height="103" rx="15" stroke="white" stroke-opacity="0.52" stroke-width="2"/>
<path d="M92.6176 71.2485L80.5667 84.113C80.306 84.3925 79.9904 84.6155 79.6393 84.7681C79.2883 84.9207 78.9095 84.9996 78.5264 85H21.4002C21.1277 84.9998 20.8612 84.9206 20.6333 84.772C20.4054 84.6233 20.2259 84.4117 20.1169 84.1631C20.008 83.9145 19.9742 83.6396 20.0197 83.3722C20.0652 83.1047 20.1881 82.8563 20.3733 82.6573L32.4106 69.7928C32.6712 69.5133 32.9869 69.2904 33.3379 69.1378C33.6889 68.9852 34.0678 68.9062 34.4508 68.9058H91.5771C91.852 68.9002 92.1225 68.9756 92.3545 69.1226C92.5865 69.2697 92.7697 69.4818 92.8809 69.7322C92.9921 69.9826 93.0265 70.2602 92.9796 70.53C92.9328 70.7998 92.8068 71.0498 92.6176 71.2485ZM80.5667 45.3366C80.305 45.0585 79.9891 44.8364 79.6383 44.6839C79.2875 44.5314 78.9092 44.4517 78.5264 44.4497H21.4002C21.1277 44.4498 20.8612 44.5291 20.6333 44.6777C20.4054 44.8264 20.2259 45.0379 20.1169 45.2866C20.008 45.5352 19.9742 45.81 20.0197 46.0775C20.0652 46.3449 20.1881 46.5934 20.3733 46.7924L32.4106 59.6637C32.6722 59.9418 32.9881 60.1639 33.3389 60.3164C33.6897 60.4689 34.068 60.5486 34.4508 60.5506H91.5771C91.8489 60.5492 92.1145 60.469 92.3414 60.3198C92.5683 60.1707 92.7467 59.959 92.8549 59.7107C92.963 59.4623 92.9962 59.188 92.9505 58.9211C92.9047 58.6543 92.782 58.4065 92.5972 58.2079L80.5667 45.3366ZM21.4002 36.0945H78.5264C78.9095 36.0942 79.2883 36.0152 79.6394 35.8626C79.9904 35.71 80.3061 35.487 80.5667 35.2075L92.6176 22.343C92.7588 22.1943 92.8654 22.0164 92.9295 21.822C92.9937 21.6275 93.0139 21.4214 92.9888 21.2183C92.9637 21.0152 92.8938 20.8201 92.7841 20.647C92.6744 20.4739 92.5277 20.327 92.3544 20.217C92.1224 20.07 91.852 19.9946 91.5771 20.0003L34.4508 20.0003C34.0678 20.0007 33.6889 20.0797 33.3379 20.2323C32.9869 20.3849 32.6712 20.6078 32.4106 20.8873L20.3733 33.7518C20.1881 33.9508 20.0652 34.1992 20.0197 34.4667C19.9742 34.7341 20.008 35.009 20.1169 35.2576C20.2259 35.5062 20.4054 35.7178 20.6333 35.8664C20.8612 36.0151 21.1277 36.0943 21.4002 36.0945Z" fill="url(#paint0_linear_1_84)"/>
<path d="M141.115 63.6545H120.036V56.7614H146.593V49.8682H119.965C119.056 49.8632 118.154 50.0361 117.311 50.3773C116.469 50.7184 115.702 51.221 115.055 51.8564C114.409 52.4918 113.894 53.2474 113.541 54.0802C113.189 54.9131 113.005 55.8067 113 56.7101V63.6965C113.004 64.6007 113.187 65.4953 113.539 66.3292C113.891 67.1631 114.405 67.9199 115.052 68.5562C115.699 69.1925 116.466 69.696 117.309 70.0377C118.152 70.3794 119.055 70.5527 119.965 70.5477H141.072V77.4409H113.502V84.3341H141.115C142.485 84.3417 143.827 83.9455 144.97 83.1957C146.113 82.4459 147.007 81.3761 147.538 80.1218C147.891 79.2891 148.075 78.3955 148.08 77.4921V70.5058C148.076 69.6016 147.893 68.707 147.541 67.8731C147.189 67.0393 146.675 66.2825 146.028 65.6462C145.381 65.0098 144.614 64.5064 143.771 64.1647C142.928 63.8229 142.025 63.6496 141.115 63.6545ZM181.95 49.8682H160.791C159.418 49.8573 158.074 50.2515 156.927 51.0007C155.78 51.7499 154.884 52.8203 154.351 54.0763C153.996 54.9101 153.812 55.8052 153.807 56.7101V77.4921C153.812 78.3971 153.996 79.2923 154.351 80.1264C154.884 81.3824 155.78 82.4529 156.927 83.202C158.074 83.9511 159.418 84.3451 160.791 84.3341H181.95C182.859 84.3391 183.761 84.1661 184.604 83.825C185.446 83.4838 186.213 82.9812 186.86 82.3458C187.506 81.7105 188.021 80.9548 188.374 80.122C188.726 79.2892 188.91 78.3955 188.915 77.4921V56.7101C188.91 55.8067 188.726 54.9131 188.373 54.0804C188.021 53.2476 187.506 52.4921 186.859 51.857C186.213 51.2214 185.446 50.7186 184.604 50.3774C183.761 50.0361 182.859 49.8631 181.95 49.8682ZM181.898 77.4409H160.843V56.7614H181.889L181.898 77.4409ZM256.059 49.8682L235.421 49.8682C234.511 49.8632 233.609 50.0361 232.767 50.3773C231.924 50.7184 231.158 51.221 230.511 51.8564C229.864 52.4918 229.35 53.2474 228.997 54.0802C228.644 54.9131 228.46 55.8067 228.455 56.7101V84.3341H235.491V73.0116H256.035V84.3341H263.071V56.7101C263.066 55.8027 262.881 54.9052 262.525 54.0692C262.17 53.2333 261.651 52.4755 260.999 51.8395C260.348 51.2035 259.575 50.7019 258.727 50.3636C257.88 50.0252 256.973 49.8569 256.059 49.8682ZM256.007 66.1184H235.463V56.7614H256.007V66.1184ZM338.212 49.8682H317.574C316.664 49.8632 315.762 50.0361 314.92 50.3773C314.077 50.7184 313.311 51.221 312.664 51.8564C312.017 52.4918 311.503 53.2474 311.15 54.0802C310.797 54.9131 310.613 55.8067 310.609 56.7101V84.3341H317.644V73.0116H338.142V84.3341H345.177V56.7101C345.173 55.8067 344.989 54.9131 344.636 54.0804C344.283 53.2476 343.768 52.4921 343.121 51.857C341.815 50.5738 340.049 49.8585 338.212 49.8682ZM338.142 66.1184H317.597V56.7614H338.142V66.1184ZM297.335 77.4409H294.52L284.459 52.7559C284.115 51.9041 283.521 51.1741 282.756 50.6596C281.99 50.1451 281.087 49.8695 280.163 49.8682H273.92C273.006 49.8633 272.111 50.1278 271.349 50.6281C270.587 51.1285 269.991 51.8422 269.637 52.679C269.402 53.2344 269.28 53.8302 269.276 54.4326V84.3341H276.312V56.7614H279.126L289.183 81.4464C289.533 82.2966 290.131 83.0236 290.899 83.5347C291.668 84.0458 292.573 84.3176 293.498 84.3154H299.741C300.348 84.3187 300.949 84.2031 301.511 83.9753C302.073 83.7476 302.584 83.4121 303.015 82.988C303.885 82.132 304.378 80.9677 304.384 79.751V49.8682H297.335V77.4409ZM202.165 49.8682H195.13V77.4921C195.135 78.3975 195.319 79.293 195.673 80.1273C196.028 80.9615 196.544 81.7182 197.194 82.3537C197.843 82.9893 198.612 83.4913 199.457 83.8312C200.302 84.171 201.207 84.3419 202.119 84.3341H223.226V77.4409H202.165V49.8682Z" fill="white"/>
<path d="M271.293 20.9736H274.527L268.697 30.4556V35.5816H265.903V30.4556L260.095 20.9736H263.285L267.289 27.5296H267.333L271.293 20.9736Z" fill="white" fill-opacity="0.66"/>
<path d="M258.63 31.2036C258.63 33.8216 256.958 35.5816 254.45 35.5816H244.726V20.9736H253.9C256.386 20.9736 258.058 22.7116 258.058 25.3516C258.058 26.4956 257.574 27.4636 256.804 28.1016C257.926 28.6956 258.63 29.7956 258.63 31.2036ZM247.52 32.9416H254.45C255.264 32.9416 255.836 32.3696 255.836 31.4896V31.0496C255.836 30.1696 255.264 29.5756 254.45 29.5756H247.52V32.9416ZM247.52 26.9576H253.9C254.736 26.9576 255.264 26.3636 255.264 25.4836V25.0656C255.264 24.1856 254.736 23.5916 253.9 23.5916H247.52V26.9576Z" fill="white" fill-opacity="0.66"/>
<path d="M220.191 35.5816V20.9736H227.143C231.301 20.9736 234.359 24.0316 234.359 28.2776C234.359 32.4796 231.301 35.5816 227.143 35.5816H220.191ZM222.985 32.9416H227.143C229.629 32.9416 231.433 31.0056 231.433 28.2776C231.433 25.5716 229.629 23.5916 227.143 23.5916H222.985V32.9416Z" fill="white" fill-opacity="0.66"/>
<path d="M205.711 23.5916V26.9576H213.763V29.5756H205.711V32.9416H216.513V35.5816H202.917V20.9736H216.513V23.5916H205.711Z" fill="white" fill-opacity="0.66"/>
<path d="M188.029 29.5756V35.5816H185.235V20.9736H195.245C197.731 20.9736 199.403 22.7116 199.403 25.3516C199.403 27.6836 197.929 29.3336 195.751 29.5536L199.403 35.5816H196.257L192.737 29.5756H188.029ZM188.029 26.9576H195.245C196.081 26.9576 196.609 26.3636 196.609 25.4836V25.0656C196.609 24.1856 196.081 23.5916 195.245 23.5916H188.029V26.9576Z" fill="white" fill-opacity="0.66"/>
<path d="M170.756 23.5916V26.9576H178.808V29.5756H170.756V32.9416H181.558V35.5816H167.962V20.9736H181.558V23.5916H170.756Z" fill="white" fill-opacity="0.66"/>
<path d="M161.125 30.7416L162.115 20.9736H164.843L163.171 35.5816H160.289L156.637 26.8256L153.073 35.5816H150.147L148.453 20.9736H151.181L152.369 30.7636L155.273 23.8996H158.045L161.125 30.7416Z" fill="white" fill-opacity="0.66"/>
<path d="M138.789 35.8676C134.631 35.8676 131.573 32.6556 131.573 28.2776C131.573 23.8996 134.631 20.6656 138.789 20.6656C142.947 20.6656 146.005 23.8996 146.005 28.2776C146.005 32.6556 142.947 35.8676 138.789 35.8676ZM134.499 28.2776C134.499 31.0496 136.303 33.0956 138.789 33.0956C141.297 33.0956 143.123 31.0496 143.123 28.2776C143.123 25.4836 141.297 23.4376 138.789 23.4376C136.303 23.4376 134.499 25.4836 134.499 28.2776Z" fill="white" fill-opacity="0.66"/>
<path d="M125.056 20.9736C127.542 20.9736 129.214 22.7116 129.214 25.3516C129.214 27.8596 127.542 29.5756 125.056 29.5756H117.84V35.5816H115.046V20.9736H125.056ZM117.84 26.9576H125.056C125.892 26.9576 126.42 26.3636 126.42 25.4836V25.0656C126.42 24.1856 125.892 23.5916 125.056 23.5916H117.84V26.9576Z" fill="white" fill-opacity="0.66"/>
<defs>
<linearGradient id="paint0_linear_1_84" x1="26.1607" y1="86.5505" x2="85.7659" y2="19.0553" gradientUnits="userSpaceOnUse">
<stop offset="0.08" stop-color="#9945FF"/>
<stop offset="0.3" stop-color="#8752F3"/>
<stop offset="0.5" stop-color="#5497D5"/>
<stop offset="0.6" stop-color="#43B4CA"/>
<stop offset="0.72" stop-color="#28E0B9"/>
<stop offset="0.97" stop-color="#19FB9B"/>
</linearGradient>
</defs>
</svg>
